<svg width="21" height="20" viewBox="0 0 21 20" fill="none" xmlns="http://www.w3.org/2000/svg">
<g opacity="0.5">
<path fill-rule="evenodd" clip-rule="evenodd" d="M9.44996 15.7562H11.55V13.7867H9.44996V15.7562ZM10.5 0C4.70399 0 0 4.41166 0 9.84746C0 15.2833 4.70399 19.6949 10.5 19.6949C16.296 19.6949 20.9999 15.2833 20.9999 9.84746C20.9999 4.41166 16.296 0 10.5 0ZM10.5 17.7259C5.86949 17.7259 2.1 14.1906 2.1 9.84789C2.1 5.50517 5.86949 1.96993 10.5 1.96993C15.1305 1.96993 18.9 5.50517 18.9 9.84789C18.9 14.1906 15.1305 17.7259 10.5 17.7259ZM10.5 3.93892C8.18037 3.93892 6.29998 5.70247 6.29998 7.87791H8.39997C8.39997 6.79469 9.34497 5.90841 10.5 5.90841C11.655 5.90841 12.6 6.79469 12.6 7.87791C12.6 9.8474 9.44997 9.60121 9.44997 12.8016H11.55C11.55 10.586 14.7 10.3398 14.7 7.87791C14.7 5.70247 12.8196 3.93892 10.5 3.93892Z" fill="#9B9B9B"/>
</g>
</svg>
