<svg width="16" height="12" viewBox="0 0 16 12" fill="none" xmlns="http://www.w3.org/2000/svg">
<path d="M14.9228 11.0391L0.84757 0.0822657C0.808964 0.0514872 0.764648 0.0285818 0.717152 0.0148574C0.669657 0.00113296 0.619911 -0.00314169 0.570756 0.00227748C0.521601 0.00769665 0.474 0.0227035 0.430669 0.0464412C0.387338 0.070179 0.349128 0.102183 0.318218 0.140625L0.0828457 0.43336C0.0518636 0.471815 0.0288008 0.515977 0.014977 0.563317C0.00115312 0.610658 -0.00316043 0.660248 0.00228315 0.70925C0.00772672 0.758253 0.0228206 0.805705 0.046701 0.848892C0.0705815 0.89208 0.10278 0.930154 0.141453 0.960938L14.2167 11.9177C14.2553 11.9485 14.2996 11.9714 14.3471 11.9851C14.3946 11.9989 14.4444 12.0031 14.4935 11.9977C14.5427 11.9923 14.5903 11.9773 14.6336 11.9536C14.6769 11.9298 14.7152 11.8978 14.7461 11.8594L14.9814 11.5666C15.0124 11.5282 15.0355 11.484 15.0493 11.4367C15.0631 11.3893 15.0674 11.3398 15.062 11.2908C15.0566 11.2417 15.0415 11.1943 15.0176 11.1511C14.9937 11.1079 14.9615 11.0698 14.9228 11.0391ZM6.98585 3.43289L10.1584 5.90273C10.1062 4.49789 8.95568 3.375 7.53214 3.375C7.34852 3.37534 7.16543 3.39474 6.98585 3.43289ZM8.07844 8.56734L4.90586 6.0975C4.95835 7.50211 6.10885 8.625 7.53214 8.625C7.71575 8.62461 7.89883 8.60529 8.07844 8.56734ZM7.53214 2.625C9.85409 2.625 11.9828 3.91406 13.1324 6C12.8506 6.51337 12.5024 6.98773 12.0967 7.41094L12.985 8.10234C13.4796 7.57551 13.8986 6.9831 14.2301 6.34195C14.284 6.2359 14.312 6.11872 14.312 5.99988C14.312 5.88104 14.284 5.76387 14.2301 5.65781C12.9525 3.17789 10.4256 1.5 7.53214 1.5C6.66833 1.5 5.84429 1.66406 5.06944 1.94086L6.16181 2.79141C6.6076 2.69063 7.06422 2.625 7.53214 2.625ZM7.53214 9.375C5.2102 9.375 3.08172 8.08594 1.93193 6C2.21409 5.48664 2.56267 5.01236 2.96875 4.5893L2.08045 3.89789C1.58597 4.42464 1.16704 5.01698 0.835566 5.65805C0.781723 5.7641 0.75367 5.88128 0.75367 6.00012C0.75367 6.11896 0.781723 6.23613 0.835566 6.34219C2.11199 8.82211 4.63895 10.5 7.53214 10.5C8.39596 10.5 9.22 10.3348 9.99484 10.0591L8.90248 9.20883C8.45669 9.30937 8.0003 9.375 7.53214 9.375Z" fill="#444444"/>
</svg>
