<svg width="106" height="33" viewBox="0 0 106 33" fill="none" xmlns="http://www.w3.org/2000/svg">
<path fill-rule="evenodd" clip-rule="evenodd" d="M16.5 0C7.3873 0 0 7.3873 0 16.5C0 25.6127 7.3873 33 16.5 33H89.5C98.6127 33 106 25.6127 106 16.5C106 7.3873 98.6127 0 89.5 0H16.5ZM42.57 18.68H40.33V12.98H38.62V20H42.57V18.68ZM44.4456 19.73C44.8856 19.9633 45.379 20.08 45.9256 20.08C46.4723 20.08 46.9656 19.9633 47.4056 19.73C47.8523 19.4967 48.2023 19.1633 48.4556 18.73C48.7156 18.29 48.8456 17.7833 48.8456 17.21C48.8456 16.6367 48.719 16.1333 48.4656 15.7C48.2123 15.26 47.8656 14.9233 47.4256 14.69C46.9856 14.4567 46.4923 14.34 45.9456 14.34C45.399 14.34 44.9056 14.4567 44.4656 14.69C44.0256 14.9233 43.679 15.26 43.4256 15.7C43.1723 16.1333 43.0456 16.6367 43.0456 17.21C43.0456 17.79 43.169 18.2967 43.4156 18.73C43.669 19.1633 44.0123 19.4967 44.4456 19.73ZM46.7556 18.24C46.529 18.48 46.2523 18.6 45.9256 18.6C45.599 18.6 45.3256 18.48 45.1056 18.24C44.8923 18 44.7856 17.6567 44.7856 17.21C44.7856 16.7567 44.8956 16.4133 45.1156 16.18C45.3356 15.94 45.6123 15.82 45.9456 15.82C46.2723 15.82 46.5456 15.94 46.7656 16.18C46.9923 16.42 47.1056 16.7633 47.1056 17.21C47.1056 17.6567 46.989 18 46.7556 18.24ZM52.9028 14.58C52.6095 14.42 52.2661 14.34 51.8728 14.34C51.4128 14.34 50.9961 14.4567 50.6228 14.69C50.2495 14.9233 49.9528 15.2567 49.7328 15.69C49.5195 16.1233 49.4128 16.6267 49.4128 17.2C49.4128 17.7733 49.5195 18.28 49.7328 18.72C49.9528 19.1533 50.2495 19.49 50.6228 19.73C50.9961 19.9633 51.4128 20.08 51.8728 20.08C52.2661 20.08 52.6095 20 52.9028 19.84C53.1961 19.6733 53.4261 19.46 53.5928 19.2V19.99C53.5928 20.4367 53.4861 20.76 53.2728 20.96C53.0661 21.1667 52.7861 21.27 52.4328 21.27C52.1395 21.27 51.8928 21.2067 51.6928 21.08C51.4928 20.96 51.3661 20.7933 51.3128 20.58H49.6228C49.6961 21.2467 49.9895 21.7733 50.5028 22.16C51.0161 22.5533 51.6861 22.75 52.5128 22.75C53.1328 22.75 53.6495 22.6267 54.0628 22.38C54.4828 22.1333 54.7928 21.8 54.9928 21.38C55.1995 20.9667 55.3028 20.5033 55.3028 19.99V14.42H53.5928V15.21C53.4328 14.95 53.2028 14.74 52.9028 14.58ZM53.2328 16.2C53.4728 16.4467 53.5928 16.7833 53.5928 17.21C53.5928 17.6367 53.4728 17.9733 53.2328 18.22C52.9995 18.4667 52.7128 18.59 52.3728 18.59C52.0328 18.59 51.7428 18.4667 51.5028 18.22C51.2695 17.9667 51.1528 17.6267 51.1528 17.2C51.1528 16.7733 51.2695 16.44 51.5028 16.2C51.7428 15.9533 52.0328 15.83 52.3728 15.83C52.7128 15.83 52.9995 15.9533 53.2328 16.2ZM60.3691 20V12.98H58.6591V20H60.3691ZM66.5683 15C66.1816 14.5733 65.6616 14.36 65.0083 14.36C64.6416 14.36 64.3116 14.4333 64.0183 14.58C63.7249 14.72 63.4916 14.9133 63.3183 15.16V14.42H61.6083V20H63.3183V16.97C63.3183 16.5967 63.4149 16.3067 63.6083 16.1C63.8016 15.8933 64.0616 15.79 64.3883 15.79C64.715 15.79 64.9749 15.8933 65.1683 16.1C65.3616 16.3067 65.4583 16.5967 65.4583 16.97V20H67.1583V16.74C67.1583 16 66.9616 15.42 66.5683 15Z" fill="white"/>
</svg>
