<svg width="106" height="33" viewBox="0 0 106 33" fill="none" xmlns="http://www.w3.org/2000/svg">
<path fill-rule="evenodd" clip-rule="evenodd" d="M16.5 0C7.3873 0 0 7.3873 0 16.5C0 25.6127 7.3873 33 16.5 33H89.5C98.6127 33 106 25.6127 106 16.5C106 7.3873 98.6127 0 89.5 0H16.5ZM32.28 19.4577C32.6867 19.6244 33.1467 19.7077 33.66 19.7077C34.1867 19.7077 34.6433 19.611 35.03 19.4177C35.4167 19.2244 35.71 18.9644 35.91 18.6377C36.1167 18.311 36.22 17.9477 36.22 17.5477C36.22 17.1277 36.1167 16.7844 35.91 16.5177C35.7033 16.251 35.4567 16.0477 35.17 15.9077C34.89 15.7677 34.5233 15.621 34.07 15.4677C33.6167 15.321 33.2833 15.1844 33.07 15.0577C32.8567 14.931 32.75 14.7544 32.75 14.5277C32.75 14.321 32.8133 14.1644 32.94 14.0577C33.0667 13.9444 33.2333 13.8877 33.44 13.8877C33.68 13.8877 33.8767 13.9544 34.03 14.0877C34.1833 14.2144 34.2667 14.391 34.28 14.6177H36.13C36.0967 13.9577 35.8433 13.4444 35.37 13.0777C34.8967 12.7044 34.2733 12.5177 33.5 12.5177C32.74 12.5177 32.1233 12.7044 31.65 13.0777C31.1767 13.4444 30.94 13.9544 30.94 14.6077C30.94 15.0477 31.0433 15.4044 31.25 15.6777C31.4567 15.951 31.7033 16.1577 31.99 16.2977C32.2767 16.4377 32.6467 16.5777 33.1 16.7177C33.4133 16.811 33.6533 16.8944 33.82 16.9677C33.9933 17.041 34.1367 17.1344 34.25 17.2477C34.37 17.361 34.43 17.5044 34.43 17.6777C34.43 17.8844 34.3567 18.0477 34.21 18.1677C34.0633 18.281 33.8633 18.3377 33.61 18.3377C33.3633 18.3377 33.1633 18.271 33.01 18.1377C32.8567 17.9977 32.7667 17.7977 32.74 17.5377H30.92C30.9333 17.9977 31.06 18.391 31.3 18.7177C31.5467 19.0444 31.8733 19.291 32.28 19.4577ZM37.3923 13.2177C37.5857 13.391 37.8323 13.4777 38.1323 13.4777C38.4257 13.4777 38.6657 13.391 38.8523 13.2177C39.0457 13.0377 39.1423 12.8177 39.1423 12.5577C39.1423 12.291 39.0457 12.071 38.8523 11.8977C38.6657 11.7177 38.4257 11.6277 38.1323 11.6277C37.8323 11.6277 37.5857 11.7177 37.3923 11.8977C37.2057 12.071 37.1123 12.291 37.1123 12.5577C37.1123 12.8177 37.2057 13.0377 37.3923 13.2177ZM38.9823 19.6377V14.0577H37.2723V19.6377H38.9823ZM43.3716 14.2177C43.0782 14.0577 42.7349 13.9777 42.3416 13.9777C41.8816 13.9777 41.4649 14.0944 41.0916 14.3277C40.7182 14.561 40.4216 14.8944 40.2016 15.3277C39.9882 15.761 39.8816 16.2644 39.8816 16.8377C39.8816 17.411 39.9882 17.9177 40.2016 18.3577C40.4216 18.791 40.7182 19.1277 41.0916 19.3677C41.4649 19.601 41.8816 19.7177 42.3416 19.7177C42.7349 19.7177 43.0782 19.6377 43.3716 19.4777C43.6649 19.311 43.8949 19.0977 44.0616 18.8377V19.6277C44.0616 20.0744 43.9549 20.3977 43.7416 20.5977C43.5349 20.8044 43.2549 20.9077 42.9016 20.9077C42.6082 20.9077 42.3616 20.8444 42.1616 20.7177C41.9616 20.5977 41.8349 20.431 41.7816 20.2177H40.0916C40.1649 20.8844 40.4582 21.411 40.9716 21.7977C41.4849 22.191 42.1549 22.3877 42.9816 22.3877C43.6016 22.3877 44.1182 22.2644 44.5316 22.0177C44.9516 21.771 45.2616 21.4377 45.4616 21.0177C45.6682 20.6044 45.7716 20.141 45.7716 19.6277V14.0577H44.0616V14.8477C43.9016 14.5877 43.6716 14.3777 43.3716 14.2177ZM43.7016 15.8377C43.9416 16.0844 44.0616 16.421 44.0616 16.8477C44.0616 17.2744 43.9416 17.611 43.7016 17.8577C43.4682 18.1044 43.1816 18.2277 42.8416 18.2277C42.5016 18.2277 42.2116 18.1044 41.9716 17.8577C41.7382 17.6044 41.6216 17.2644 41.6216 16.8377C41.6216 16.411 41.7382 16.0777 41.9716 15.8377C42.2116 15.591 42.5016 15.4677 42.8416 15.4677C43.1816 15.4677 43.4682 15.591 43.7016 15.8377ZM51.9687 14.6377C51.582 14.211 51.062 13.9977 50.4087 13.9977C50.042 13.9977 49.712 14.071 49.4187 14.2177C49.1253 14.3577 48.892 14.551 48.7187 14.7977V14.0577H47.0087V19.6377H48.7187V16.6077C48.7187 16.2344 48.8153 15.9444 49.0087 15.7377C49.202 15.531 49.462 15.4277 49.7887 15.4277C50.1153 15.4277 50.3753 15.531 50.5687 15.7377C50.762 15.9444 50.8587 16.2344 50.8587 16.6077V19.6377H52.5587V16.3777C52.5587 15.6377 52.362 15.0577 51.9687 14.6377ZM57.5461 16.8177V12.6177H55.8361V16.8077C55.8361 17.4344 55.9628 17.9677 56.2161 18.4077C56.4694 18.841 56.8128 19.1677 57.2461 19.3877C57.6861 19.601 58.1828 19.7077 58.7361 19.7077C59.2894 19.7077 59.7894 19.5977 60.2361 19.3777C60.6894 19.1577 61.0494 18.831 61.3161 18.3977C61.5828 17.9644 61.7161 17.4344 61.7161 16.8077V12.6177H60.0061V16.8177C60.0061 17.2377 59.8994 17.561 59.6861 17.7877C59.4728 18.0144 59.1661 18.1277 58.7661 18.1277C58.3661 18.1277 58.0628 18.0144 57.8561 17.7877C57.6494 17.561 57.5461 17.2377 57.5461 16.8177ZM65.3169 14.2177C65.0235 14.3777 64.7935 14.5877 64.6269 14.8477V14.0577H62.9169V22.2977H64.6269V18.8577C64.7935 19.111 65.0235 19.3177 65.3169 19.4777C65.6169 19.6377 65.9602 19.7177 66.3469 19.7177C66.8069 19.7177 67.2235 19.601 67.5969 19.3677C67.9702 19.1277 68.2635 18.791 68.4769 18.3577C68.6969 17.9177 68.8069 17.411 68.8069 16.8377C68.8069 16.2644 68.6969 15.761 68.4769 15.3277C68.2635 14.8944 67.9702 14.561 67.5969 14.3277C67.2235 14.0944 66.8069 13.9777 66.3469 13.9777C65.9535 13.9777 65.6102 14.0577 65.3169 14.2177ZM66.7069 15.8377C66.9469 16.0777 67.0669 16.411 67.0669 16.8377C67.0669 17.2644 66.9469 17.6044 66.7069 17.8577C66.4669 18.1044 66.1769 18.2277 65.8369 18.2277C65.4969 18.2277 65.2069 18.1044 64.9669 17.8577C64.7335 17.611 64.6169 17.2744 64.6169 16.8477C64.6169 16.421 64.7335 16.0844 64.9669 15.8377C65.2069 15.591 65.4969 15.4677 65.8369 15.4677C66.1835 15.4677 66.4735 15.591 66.7069 15.8377Z" fill="white"/>
</svg>
