<svg width="15" height="15" viewBox="0 0 15 15" fill="none" xmlns="http://www.w3.org/2000/svg">
<path d="M13.6285 6.27589H13.125V6.24995H7.50001V8.74995H11.0322C10.5169 10.2053 9.1322 11.25 7.50001 11.25C5.42907 11.25 3.75001 9.57089 3.75001 7.49995C3.75001 5.42901 5.42907 3.74995 7.50001 3.74995C8.45595 3.74995 9.32564 4.11057 9.98783 4.69964L11.7556 2.93182C10.6394 1.89151 9.14626 1.24995 7.50001 1.24995C4.04845 1.24995 1.25001 4.04839 1.25001 7.49995C1.25001 10.9515 4.04845 13.75 7.50001 13.75C10.9516 13.75 13.75 10.9515 13.75 7.49995C13.75 7.08089 13.7069 6.67182 13.6285 6.27589Z" fill="#FFC107"/>
<path d="M1.97063 4.59089L4.02406 6.09683C4.57969 4.7212 5.92532 3.74995 7.5 3.74995C8.45594 3.74995 9.32563 4.11057 9.98782 4.69964L11.7556 2.93182C10.6394 1.89151 9.14625 1.24995 7.5 1.24995C5.09938 1.24995 3.0175 2.60526 1.97063 4.59089Z" fill="#FF3D00"/>
<path d="M7.50003 13.75C9.1144 13.75 10.5813 13.1322 11.6903 12.1275L9.75596 10.4906C9.10738 10.9838 8.31486 11.2506 7.50003 11.25C5.8744 11.25 4.49409 10.2134 3.97409 8.76684L1.93596 10.3372C2.97034 12.3612 5.07096 13.75 7.50003 13.75Z" fill="#4CAF50"/>
<path d="M13.6284 6.27593H13.125V6.24999H7.5V8.74999H11.0322C10.7857 9.44262 10.3417 10.0479 9.755 10.4909L9.75594 10.4903L11.6903 12.1272C11.5534 12.2516 13.75 10.625 13.75 7.49999C13.75 7.08093 13.7069 6.67186 13.6284 6.27593Z" fill="#1976D2"/>
</svg>
