<svg width="12" height="15" viewBox="0 0 12 15" fill="none" xmlns="http://www.w3.org/2000/svg">
<path d="M8.93717 0.0073911C8.90579 -0.0276859 7.77502 0.0212373 6.79102 1.08924C5.80701 2.15632 5.9584 3.38032 5.98055 3.4117C6.00271 3.44309 7.38363 3.49201 8.26517 2.25047C9.14671 1.00893 8.96856 0.0433911 8.93717 0.0073911ZM11.9963 10.8379C11.9519 10.7492 9.8501 9.69879 10.0458 7.67909C10.2415 5.65847 11.5919 5.10463 11.6132 5.04463C11.6344 4.98463 11.0621 4.3154 10.4556 3.97663C10.0104 3.73778 9.51754 3.60094 9.01286 3.57601C8.91317 3.57324 8.56702 3.48832 7.85532 3.68309C7.3864 3.81139 6.32948 4.22678 6.03871 4.2434C5.74701 4.26001 4.87932 3.76155 3.94609 3.62955C3.34886 3.51416 2.71563 3.75047 2.2624 3.93232C1.81009 4.11324 0.949779 4.62832 0.347932 5.99724C-0.253915 7.36525 0.0608546 9.53263 0.286086 10.2065C0.511317 10.8794 0.863009 11.9825 1.46116 12.7874C1.99286 13.6957 2.69809 14.3262 2.99255 14.5403C3.28701 14.7545 4.11778 14.8966 4.69378 14.6022C5.15717 14.3179 5.99348 14.1545 6.32394 14.1665C6.65348 14.1785 7.30332 14.3086 7.96886 14.664C8.49594 14.8459 8.9944 14.7702 9.49379 14.5671C9.99317 14.3631 10.7159 13.5896 11.5596 12.0212C11.8799 11.292 12.0258 10.8979 11.9963 10.8379Z" fill="black"/>
<path d="M8.93717 0.0073911C8.90579 -0.0276859 7.77502 0.0212373 6.79102 1.08924C5.80701 2.15632 5.9584 3.38032 5.98055 3.4117C6.00271 3.44309 7.38363 3.49201 8.26517 2.25047C9.14671 1.00893 8.96856 0.0433911 8.93717 0.0073911ZM11.9963 10.8379C11.9519 10.7492 9.8501 9.69879 10.0458 7.67909C10.2415 5.65847 11.5919 5.10463 11.6132 5.04463C11.6344 4.98463 11.0621 4.3154 10.4556 3.97663C10.0104 3.73778 9.51754 3.60094 9.01286 3.57601C8.91317 3.57324 8.56702 3.48832 7.85532 3.68309C7.3864 3.81139 6.32948 4.22678 6.03871 4.2434C5.74701 4.26001 4.87932 3.76155 3.94609 3.62955C3.34886 3.51416 2.71563 3.75047 2.2624 3.93232C1.81009 4.11324 0.949779 4.62832 0.347932 5.99724C-0.253915 7.36525 0.0608546 9.53263 0.286086 10.2065C0.511317 10.8794 0.863009 11.9825 1.46116 12.7874C1.99286 13.6957 2.69809 14.3262 2.99255 14.5403C3.28701 14.7545 4.11778 14.8966 4.69378 14.6022C5.15717 14.3179 5.99348 14.1545 6.32394 14.1665C6.65348 14.1785 7.30332 14.3086 7.96886 14.664C8.49594 14.8459 8.9944 14.7702 9.49379 14.5671C9.99317 14.3631 10.7159 13.5896 11.5596 12.0212C11.8799 11.292 12.0258 10.8979 11.9963 10.8379Z" fill="black"/>
</svg>
